<?xml version="1.0" encoding="utf-8"?>
<!-- Generator: Adobe Illustrator 15.0.2, SVG Export Plug-In  -->
<!DOCTYPE svg PUBLIC "-//W3C//DTD SVG 1.1//EN" "http://www.w3.org/Graphics/SVG/1.1/DTD/svg11.dtd" [
	<!ENTITY ns_flows "http://ns.adobe.com/Flows/1.0/">
]>
<svg version="1.1"
	 xmlns="http://www.w3.org/2000/svg" xmlns:xlink="http://www.w3.org/1999/xlink" xmlns:a="http://ns.adobe.com/AdobeSVGViewerExtensions/3.0/"
	 x="0px" y="0px" width="460px" height="196px" viewBox="0 0 460 196" overflow="visible" enable-background="new 0 0 460 196"
	 xml:space="preserve">
<defs>
</defs>
<path fill="#FFFFFF" d="M0,109c0,11,9,20,20,20h440V0H20C9,0,0,9,0,20V109z"/>
<path fill-rule="evenodd" clip-rule="evenodd" fill="#A0BE28" d="M410.182,34.314c-5.008-4.047-11.106-6.795-17.789-7.738
	c0.907,1.164,1.451,2.604,1.451,4.166c0,3.873-3.291,7.008-7.35,7.008c-4.06,0-7.351-3.135-7.351-7.008
	c0-1.436,0.452-2.771,1.23-3.883c-5.618,1.066-10.781,3.416-15.169,6.738c4.533,3.045,9.741,5.238,15.448,6.305
	C391.272,41.887,401.695,39.621,410.182,34.314z M379.001,58.076c-5.981-7.59-14.091-12.504-22.81-14.596
	c-3.48,5.596-5.496,12.195-5.496,19.271c0,19.385,15.096,35.238,34.174,36.459C390.239,85.896,388.533,70.154,379.001,58.076z
	 M418.254,43.428c-15.323,9.814-22.847,28.992-17.145,47.193c0.551,1.758,1.217,3.445,1.971,5.074
	c12.249-5.902,20.703-18.436,20.703-32.943C423.783,55.652,421.753,49.035,418.254,43.428z M414.479,38.398
	c-0.771-0.863-1.584-1.689-2.434-2.477c-9.309,6.24-20.967,8.984-32.852,6.764c-6.169-1.152-11.794-3.535-16.681-6.838
	c-1.51,1.387-2.897,2.904-4.155,4.523c8.573,2.49,16.479,7.572,22.43,15.117c10.146,12.861,12.027,29.592,6.419,43.809
	c0.012,0,0.021,0,0.033,0c4.936,0,9.64-0.984,13.936-2.758c-0.78-1.701-1.477-3.465-2.051-5.299
	c-6.012-19.201,1.694-39.41,17.585-50.09C416.01,40.197,415.265,39.279,414.479,38.398"/>
<path fill-rule="evenodd" clip-rule="evenodd" fill="#A0BE28" d="M415.132,95.479c19.212-15.154,22.5-43.008,7.348-62.221
	c-15.152-19.209-43.008-22.498-62.215-7.346c-19.212,15.152-22.502,43.01-7.353,62.219
	C368.064,107.342,395.925,110.635,415.132,95.479z M362.67,28.967c17.918-14.133,43.898-11.068,58.031,6.85
	c14.13,17.918,11.064,43.898-6.852,58.031c-17.918,14.135-43.9,11.064-58.035-6.85C341.684,69.08,344.749,43.1,362.67,28.967z"/>
<path fill="#878787" d="M36.424,43.078h8.238c4.997,0,7.187,3.135,7.187,7.582c0,4.668-2.735,7.697-7.622,7.697H40.58v10.758h-4.156
	V43.078z M40.58,55.219h2.955c2.222,0,4.155-1.203,4.155-4.484c0-2.807-1.13-4.521-4.448-4.521H40.58V55.219z"/>
<path fill="#878787" d="M55.127,43.078h3.942v8.531l0.108,0.072c1.094-1.676,2.808-2.697,4.812-2.697
	c2.99,0,4.887,1.348,4.887,5.324v14.807h-3.938V55.656c0-2.553-0.767-3.537-2.735-3.537c-1.604,0-3.134,1.277-3.134,3.83v13.166
	h-3.942V43.078z"/>
<path fill="#878787" d="M75.804,49.494l3.392,14.734h0.072l3.139-14.734h4.118l-5.396,20.348c-1.533,5.361-2.808,6.053-6.855,5.98
	c-0.511,0-1.057-0.072-1.568-0.145v-3.137c0.438,0.072,0.84,0.145,1.275,0.145c1.35,0,2.227-0.289,2.662-1.531l0.512-1.604
	l-5.578-20.057H75.804z"/>
<path fill="#878787" d="M97.9,55.219v-0.51c0-1.566-0.546-3.027-2.587-3.027c-1.568,0-2.811,0.73-2.811,2.553
	c0,1.533,0.696,2.154,2.772,2.883l2.518,0.873c2.918,0.984,4.266,2.553,4.266,5.652c0,4.195-3.063,5.98-7.038,5.98
	c-4.96,0-6.452-2.297-6.452-6.09v-0.729h3.499v0.619c0,2.262,0.804,3.502,3.063,3.502c2.151,0,3.208-1.092,3.208-2.881
	c0-1.457-0.767-2.406-2.151-2.883l-3.209-1.129c-2.953-1.02-4.195-2.516-4.195-5.652c0-3.682,2.665-5.396,6.713-5.396
	c4.994,0,6.124,2.918,6.124,5.359v0.875H97.9z"/>
<path fill="#878787" d="M105.889,42.785h3.938v3.938h-3.938V42.785z M105.889,49.494h3.938v19.621h-3.938V49.494z"/>
<path fill="#878787" d="M121.057,48.984c5.724,0,7.329,4.23,7.329,10.318c0,6.09-1.858,10.32-7.329,10.32
	c-5.433,0-7.293-4.23-7.293-10.32C113.764,53.215,115.366,48.984,121.057,48.984z M121.057,66.707c2.881,0,3.392-2.406,3.392-7.404
	c0-4.338-0.511-7.4-3.392-7.4c-2.845,0-3.354,3.062-3.354,7.4C117.703,64.301,118.212,66.707,121.057,66.707z"/>
<path fill="#878787" d="M130.39,49.494h2.7v-5.58h3.938v5.58h3.209v2.918h-3.209v11.705c0,1.531,0.436,2.08,1.786,2.08
	c0.583,0,1.06-0.039,1.423-0.111v2.918c-0.84,0.219-1.932,0.328-3.174,0.328c-2.66,0-3.973-0.729-3.973-4.74v-12.18h-2.7V49.494z"/>
<path fill="#878787" d="M143.006,43.078h3.94v8.531l0.107,0.072c1.097-1.676,2.811-2.697,4.814-2.697
	c2.99,0,4.887,1.348,4.887,5.324v14.807h-3.94V55.656c0-2.553-0.764-3.537-2.732-3.537c-1.605,0-3.136,1.277-3.136,3.83v13.166
	h-3.94V43.078z"/>
<path fill="#878787" d="M164.667,59.814v1.133c0,2.625,0.328,5.979,3.281,5.979c2.808,0,3.136-3.209,3.136-4.377h3.723
	c0,4.34-2.628,7.074-6.894,7.074c-3.211,0-7.184-0.947-7.184-10.029c0-5.139,1.095-10.609,7.257-10.609
	c5.47,0,6.928,3.281,6.928,8.752v2.078H164.667z M170.977,57.117v-1.057c0-2.482-0.802-4.379-3.028-4.379
	c-2.515,0-3.281,2.48-3.281,5.035v0.4H170.977z"/>
<path fill="#878787" d="M178.889,49.494h3.938v3.064h0.073c0.874-2.188,2.334-3.574,4.556-3.574c0.438,0,0.694,0.072,0.949,0.145
	v4.014c-0.29-0.074-0.984-0.221-1.641-0.221c-1.785,0-3.938,0.803-3.938,4.451v11.742h-3.938V49.494z"/>
<path fill="#878787" d="M203.756,65.029c0,0.729,0.438,1.385,1.022,1.385c0.255,0,0.511-0.035,0.656-0.109v2.555
	c-0.474,0.217-1.167,0.473-1.932,0.473c-1.753,0-3.211-0.695-3.321-2.59h-0.072c-1.057,1.934-2.59,2.881-4.885,2.881
	c-3.136,0-5.106-1.75-5.106-5.506c0-4.375,1.896-5.287,4.559-6.162l3.065-0.838c1.42-0.4,2.295-0.803,2.295-2.518
	c0-1.785-0.619-2.918-2.698-2.918c-2.625,0-2.99,1.861-2.99,3.758h-3.72c0-4.158,1.713-6.455,6.891-6.455
	c3.467,0,6.236,1.348,6.236,4.814V65.029z M200.037,58.758c-1.02,0.801-3.209,1.275-4.376,1.822
	c-1.13,0.547-1.604,1.715-1.604,3.172c0,1.641,0.802,2.955,2.442,2.955c2.369,0,3.537-1.787,3.537-4.668V58.758z"/>
<path fill="#878787" d="M208.495,49.494h3.72v2.408h0.072c0.805-1.752,2.262-2.918,4.414-2.918c4.485,0,6.309,3.83,6.309,10.574
	c0,8.244-3.354,10.064-6.054,10.064c-2.114,0-3.72-1.057-4.448-2.805h-0.075v8.713h-3.938V49.494z M215.568,66.486
	c2.262,0,3.284-1.676,3.284-7.109c0-4.449-0.584-7.258-3.319-7.258c-2.697,0-3.318,2.771-3.318,6.967
	C212.215,63.789,212.799,66.486,215.568,66.486z"/>
<path fill="#878787" d="M226.947,42.785h3.938v3.938h-3.938V42.785z M226.947,49.494h3.938v19.621h-3.938V49.494z"/>
<path fill="#878787" d="M238.98,59.814v1.133c0,2.625,0.328,5.979,3.281,5.979c2.808,0,3.136-3.209,3.136-4.377h3.72
	c0,4.34-2.625,7.074-6.891,7.074c-3.211,0-7.184-0.947-7.184-10.029c0-5.139,1.092-10.609,7.256-10.609
	c5.471,0,6.929,3.281,6.929,8.752v2.078H238.98z M245.287,57.117v-1.057c0-2.482-0.801-4.379-3.025-4.379
	c-2.518,0-3.281,2.48-3.281,5.035v0.4H245.287z"/>
<path fill="#878787" d="M253.418,43.078h2.187v9.369h0.075c0.546-1.969,2.442-3.135,4.741-3.135c2.953,0,4.957,1.533,4.957,5.18
	v14.623h-2.187V55.111c0-2.664-1.095-3.973-3.316-3.973c-2.555,0-4.271,1.965-4.271,4.957v13.02h-2.187V43.078z"/>
<path fill="#878787" d="M270.34,49.75h2.187v13.639c0,3.137,1.058,4.338,3.354,4.338c2.479,0,4.23-1.969,4.23-4.959V49.75h2.188
	v19.365h-1.971v-2.701h-0.073c-1.094,2.152-2.99,3.137-4.959,3.137c-2.953,0-4.957-1.531-4.957-5.178V49.75z"/>
<path fill="#878787" d="M287.039,43.078h2.187v9.59h0.075c0.471-2.043,2.111-3.355,4.519-3.355c4.269,0,6.199,3.428,6.199,10.102
	c0,6.707-1.931,10.137-6.199,10.137c-2.297,0-4.155-1.424-4.739-3.646h-0.072v3.211h-1.969V43.078z M293.456,67.727
	c2.187,0,4.229-1.129,4.229-8.312c0-7.148-2.042-8.275-4.229-8.275c-2.224,0-4.23,1.127-4.23,8.275
	C289.226,66.598,291.232,67.727,293.456,67.727z"/>
<path fill="#878787" d="M316.102,62.695c-0.328,4.123-2.59,6.855-6.234,6.855c-4.088,0-6.492-2.844-6.492-10.137
	c0-6.711,2.404-10.102,6.67-10.102c4.304,0,6.237,2.953,6.237,9.408v0.801h-10.573v0.912c0,5.58,1.967,7.293,4.118,7.293
	c2.297,0,3.72-1.641,4.085-5.031H316.102z M313.947,57.701c-0.072-4.814-1.42-6.562-4.12-6.562c-2.697,0-4.048,1.748-4.118,6.562
	H313.947z"/>
<path fill="#878787" d="M320.438,49.75h2.189v3.029h0.072c0.839-2.154,2.625-3.467,4.887-3.467c0.253,0,0.511,0.035,0.767,0.109
	v2.188c-0.366-0.072-0.729-0.107-1.06-0.107c-2.407,0-4.666,1.748-4.666,5.504v12.109h-2.189V49.75z"/>
<path fill="#878787" d="M186.482,78.883h1.915l5.086,13.02h-1.915l-1.42-3.918h-5.506l-1.46,3.918h-1.786L186.482,78.883z
	 M185.189,86.523h4.41l-2.168-6.07h-0.037L185.189,86.523z"/>
<path fill="#878787" d="M202.308,91.902h-1.46v-1.494h-0.035c-0.656,1.166-1.713,1.713-3.063,1.713c-2.479,0-3.246-1.42-3.246-3.445
	v-6.199h1.552v6.385c0,1.145,0.729,1.893,1.915,1.893c1.877,0,2.789-1.258,2.789-2.953v-5.324h1.549V91.902z"/>
<path fill="#878787" d="M205.592,88.932c0.056,1.385,1.258,1.822,2.533,1.822c0.966,0,2.278-0.217,2.278-1.404
	c0-1.201-1.53-1.402-3.08-1.748c-1.53-0.35-3.082-0.859-3.082-2.662c0-1.896,1.88-2.682,3.521-2.682
	c2.076,0,3.736,0.656,3.862,2.953h-1.547c-0.11-1.201-1.167-1.586-2.188-1.586c-0.931,0-2.007,0.258-2.007,1.205
	c0,1.113,1.641,1.293,3.082,1.641c1.55,0.346,3.082,0.857,3.082,2.68c0,2.244-2.098,2.971-4.013,2.971
	c-2.113,0-3.902-0.855-3.993-3.189H205.592z"/>
<path fill="#878787" d="M226.868,88.914c-0.42,2.076-1.915,3.207-4.029,3.207c-3.009,0-4.432-2.076-4.521-4.957
	c0-2.826,1.858-4.906,4.43-4.906c3.335,0,4.356,3.117,4.266,5.398h-7.055c-0.057,1.641,0.871,3.098,2.934,3.098
	c1.277,0,2.168-0.619,2.445-1.84H226.868z M225.373,86.287c-0.073-1.477-1.187-2.662-2.717-2.662c-1.622,0-2.59,1.223-2.697,2.662
	H225.373z"/>
<path fill="#878787" d="M230.26,80.781h-1.55v-1.898h1.55V80.781z M228.71,82.477h1.55v9.426h-1.55V82.477z"/>
<path fill="#878787" d="M240.797,91.102c0,3.062-1.406,4.631-4.376,4.631c-1.767,0-3.811-0.713-3.902-2.77h1.552
	c0.072,1.127,1.42,1.529,2.442,1.529c2.022,0,2.826-1.459,2.826-3.574v-0.619h-0.037c-0.509,1.148-1.751,1.715-2.935,1.715
	c-2.811,0-4.212-2.207-4.212-4.779c0-2.223,1.095-4.977,4.357-4.977c1.186,0,2.24,0.529,2.808,1.568h0.019v-1.35h1.458V91.102z
	 M239.264,86.998c0-1.658-0.729-3.373-2.679-3.373c-1.987,0-2.789,1.623-2.789,3.428c0,1.697,0.621,3.592,2.66,3.592
	C238.5,90.645,239.264,88.768,239.264,86.998z"/>
<path fill="#878787" d="M251.17,88.914c-0.417,2.076-1.912,3.207-4.028,3.207c-3.01,0-4.43-2.076-4.521-4.957
	c0-2.826,1.858-4.906,4.43-4.906c3.335,0,4.357,3.117,4.269,5.398h-7.058c-0.054,1.641,0.874,3.098,2.935,3.098
	c1.277,0,2.17-0.619,2.444-1.84H251.17z M249.675,86.287c-0.072-1.477-1.184-2.662-2.716-2.662c-1.625,0-2.588,1.223-2.698,2.662
	H249.675z"/>
<path fill="#878787" d="M252.921,82.477h1.458v1.498h0.035c0.658-1.17,1.713-1.717,3.065-1.717c2.478,0,3.246,1.424,3.246,3.445
	v6.199h-1.552v-6.379c0-1.148-0.729-1.898-1.914-1.898c-1.878,0-2.789,1.258-2.789,2.955v5.322h-1.55V82.477z"/>
<path fill="#878787" d="M271.097,88.914c-0.417,2.076-1.915,3.207-4.026,3.207c-3.01,0-4.432-2.076-4.523-4.957
	c0-2.826,1.858-4.906,4.432-4.906c3.336,0,4.355,3.117,4.266,5.398h-7.057c-0.054,1.641,0.874,3.098,2.935,3.098
	c1.277,0,2.17-0.619,2.444-1.84H271.097z M269.602,86.287c-0.07-1.477-1.184-2.662-2.717-2.662c-1.619,0-2.587,1.223-2.697,2.662
	H269.602z"/>
<path fill="#878787" d="M272.791,82.477h1.461v1.986h0.037c0.748-1.514,1.786-2.258,3.464-2.205v1.641
	c-2.498,0-3.41,1.424-3.41,3.811v4.193h-1.552V82.477z"/>
<path fill="#878787" d="M284.243,78.883h1.731v5.6h6.855v-5.6h1.732v13.02h-1.732v-5.959h-6.855v5.959h-1.731V78.883z"/>
<path fill="#878787" d="M305.503,91.867c-0.274,0.164-0.621,0.254-1.113,0.254c-0.802,0-1.312-0.436-1.312-1.459
	c-0.857,1.004-2.006,1.459-3.318,1.459c-1.714,0-3.117-0.764-3.117-2.643c0-2.135,1.584-2.59,3.192-2.898
	c1.713-0.33,3.171-0.221,3.171-1.385c0-1.35-1.113-1.57-2.096-1.57c-1.314,0-2.28,0.402-2.355,1.787h-1.547
	c0.089-2.334,1.894-3.154,3.991-3.154c1.697,0,3.539,0.383,3.539,2.59v4.85c0,0.729,0,1.057,0.492,1.057
	c0.127,0,0.272-0.018,0.474-0.092V91.867z M302.986,87.035c-0.603,0.438-1.77,0.457-2.809,0.637
	c-1.02,0.184-1.896,0.547-1.896,1.697c0,1.021,0.876,1.385,1.823,1.385c2.041,0,2.881-1.275,2.881-2.133V87.035z"/>
<path fill="#878787" d="M306.942,82.477h1.46v1.498h0.035c0.656-1.17,1.713-1.717,3.061-1.717c2.482,0,3.246,1.424,3.246,3.445
	v6.199h-1.549v-6.379c0-1.148-0.729-1.898-1.915-1.898c-1.877,0-2.789,1.258-2.789,2.955v5.322h-1.549V82.477z"/>
<path fill="#878787" d="M325.502,91.902h-1.549v-1.275h-0.035c-0.514,1.039-1.716,1.494-3.012,1.494
	c-2.896,0-4.336-2.297-4.336-4.957c0-2.662,1.42-4.906,4.303-4.906c0.966,0,2.352,0.363,3.045,1.477h0.035v-4.852h1.549V91.902z
	 M321.129,90.754c2.076,0,2.878-1.785,2.878-3.555c0-1.859-0.839-3.574-2.972-3.574c-2.114,0-2.824,1.805-2.824,3.646
	C318.211,89.039,319.12,90.754,321.129,90.754z"/>
<path fill="#FFFFFF" d="M114.937,169v-2.42h2.64V169H114.937z M120.877,169v-2.42h2.641V169H120.877z M126.819,169v-2.42h2.64V169
	H126.819z"/>
<path fill="#FFFFFF" d="M152.603,169v-11.288L148.598,169h-2.839l-4.004-11.288V169h-2.641v-14.236h4.555l3.608,10.518l3.696-10.518
	h4.356V169H152.603z"/>
<path fill="#FFFFFF" d="M159.071,169v-14.236h2.772V169H159.071z"/>
<path fill="#FFFFFF" d="M170.861,156.92V169h-2.772v-12.08h-3.916v-2.156h10.605v2.156H170.861z"/>
<path fill="#FFFFFF" d="M183.004,169v-14.236h2.773V169H183.004z"/>
<path fill="#FFFFFF" d="M197.791,169v-6.271h-5.545V169h-2.771v-14.236h2.771v5.81h5.545v-5.81h2.773V169H197.791z"/>
<path fill="#FFFFFF" d="M212.146,169l-4.334-5.919h-0.615V169h-2.773v-14.236h5.326c2.266,0,4.818,0.748,4.818,4.115
	c0,1.914-0.859,3.696-3.521,4.114l4.488,6.007H212.146z M209.859,156.898h-2.662v4.049h2.684c1.277,0,1.871-0.881,1.871-2.068
	C211.752,157.69,211.158,156.898,209.859,156.898z"/>
<path fill="#FFFFFF" d="M218.256,169v-14.236h8.449v2.135h-5.676v3.675h5.215v2.134h-5.215v4.158h5.875V169H218.256z"/>
<path fill="#FFFFFF" d="M238.072,169l-4.334-5.919h-0.617V169h-2.771v-14.236h5.324c2.266,0,4.818,0.748,4.818,4.115
	c0,1.914-0.857,3.696-3.52,4.114l4.488,6.007H238.072z M235.783,156.898h-2.662v4.049h2.686c1.275,0,1.869-0.881,1.869-2.068
	C237.676,157.69,237.082,156.898,235.783,156.898z"/>
<path fill="#FFFFFF" d="M258.949,169l-5.764-6.491V169h-2.773v-14.236h2.773v6.007l5.258-6.007h3.125l-5.809,6.689l6.777,7.547
	H258.949z"/>
<path fill="#FFFFFF" d="M272.664,169l-4.334-5.919h-0.615V169h-2.773v-14.236h5.326c2.266,0,4.818,0.748,4.818,4.115
	c0,1.914-0.859,3.696-3.521,4.114l4.488,6.007H272.664z M270.377,156.898h-2.662v4.049h2.684c1.277,0,1.871-0.881,1.871-2.068
	C272.27,157.69,271.676,156.898,270.377,156.898z"/>
<path fill="#FFFFFF" d="M288.719,169l-1.275-3.807h-5.084L281.018,169h-2.949l5.787-14.236h2.553L291.777,169H288.719z M285,157.845
	l-1.869,5.259h3.607L285,157.845z"/>
<path fill="#FFFFFF" d="M297.117,156.92v3.741h5.412v2.112h-5.412V169h-2.773v-14.236h8.449v2.156H297.117z"/>
<path fill="#FFFFFF" d="M311.51,156.92V169h-2.773v-12.08h-3.916v-2.156h10.605v2.156H311.51z"/>
<path fill="#FFFFFF" d="M200.404,193.244h7.26v2.156h-9.549l-0.727-2.244l7.459-9.836h-6.645v-2.156h8.912l0.725,2.244
	L200.404,193.244z"/>
<path fill="#FFFFFF" d="M216.578,195.818c-4.07,0-6.029-1.87-6.029-5.677v-8.978h2.773v8.758c0,3.19,1.473,3.763,3.256,3.763
	c1.738,0,2.971-0.946,2.971-3.763v-8.758h2.771v9.021C222.32,193.97,220.252,195.818,216.578,195.818z"/>
<path fill="#FFFFFF" d="M245.883,195.4v-11.288l-4.004,11.288h-2.84l-4.004-11.288V195.4h-2.641v-14.236h4.555l3.609,10.518
	l3.695-10.518h4.357V195.4H245.883z"/>
<path fill="#FFFFFF" d="M252.482,195.4v-14.236h8.449v2.135h-5.676v3.675h5.215v2.134h-5.215v4.158h5.875v2.135H252.482z"/>
<path fill="#FFFFFF" d="M272.895,195.4v-6.271h-5.545v6.271h-2.773v-14.236h2.773v5.81h5.545v-5.81h2.771V195.4H272.895z"/>
<path fill="#FFFFFF" d="M287.25,195.4l-4.334-5.919h-0.615v5.919h-2.773v-14.236h5.326c2.266,0,4.818,0.748,4.818,4.115
	c0,1.914-0.859,3.696-3.521,4.114l4.488,6.007H287.25z M284.963,183.299h-2.662v4.049h2.684c1.277,0,1.871-0.881,1.871-2.068
	C286.855,184.091,286.262,183.299,284.963,183.299z"/>
<path fill="#FFFFFF" d="M305.379,195.818c-5.238,0-6.559-3.696-6.559-7.547c0-4.379,1.98-7.394,6.756-7.394
	c0.99,0,2.574,0.309,3.586,0.572l-0.857,2.333c-0.857-0.375-1.738-0.771-2.707-0.771c-2.311,0-3.916,1.122-3.916,5.259
	c0,3.433,0.836,5.413,3.762,5.413c1.014,0,1.586-0.154,2.268-0.551v-3.212h-3.146v-2.135h5.609v6.755
	C308.701,195.4,307.512,195.818,305.379,195.818z"/>
<path fill="#FFFFFF" d="M313.498,195.4v-14.236h8.449v2.135h-5.678v3.675h5.215v2.134h-5.215v4.158h5.875v2.135H313.498z"/>
<path fill="#FFFFFF" d="M329.348,195.818c-1.232,0-3.059-0.352-4.268-0.682l0.857-2.333c1.057,0.396,2.266,0.881,3.434,0.881
	c1.781,0,3.035-0.33,3.035-1.937c0-1.519-1.717-2.024-3.498-2.707c-1.893-0.726-3.828-1.672-3.828-4.246
	c0-2.816,2.904-3.917,5.521-3.917c0.969,0,2.84,0.221,4.006,0.616l-0.859,2.333c-0.812-0.353-1.848-0.814-3.211-0.814
	c-2.068,0-2.641,0.946-2.641,1.782c0,1.145,1.342,1.562,2.859,2.112c2.047,0.726,4.467,1.672,4.467,4.797
	C335.223,195.137,332.275,195.818,329.348,195.818z"/>
<path fill="#FFFFFF" d="M344.24,195.818c-4.07,0-6.029-1.87-6.029-5.677v-8.978h2.773v8.758c0,3.19,1.473,3.763,3.256,3.763
	c1.738,0,2.971-0.946,2.971-3.763v-8.758h2.771v9.021C349.982,193.97,347.914,195.818,344.24,195.818z"/>
<path fill="#FFFFFF" d="M361.518,195.4l-5.061-10.958V195.4h-2.641v-14.236h4.113l5.018,10.958v-10.958h2.729V195.4H361.518z"/>
<path fill="#FFFFFF" d="M374.18,195.4h-4.643v-14.236h4.643c4.598,0,6.799,1.87,6.799,7.063
	C380.979,193.464,378.865,195.4,374.18,195.4z M374.18,183.299h-1.871v9.967h2.068c2.201,0,3.74-0.857,3.74-5.017
	C378.117,183.761,376.357,183.299,374.18,183.299z"/>
<path fill="#FFFFFF" d="M392.492,195.4v-6.271h-5.545v6.271h-2.771v-14.236h2.771v5.81h5.545v-5.81h2.773V195.4H392.492z"/>
<path fill="#FFFFFF" d="M399.127,195.4v-14.236h8.449v2.135h-5.678v3.675h5.215v2.134h-5.215v4.158h5.875v2.135H399.127z"/>
<path fill="#FFFFFF" d="M411.121,195.4v-14.236h2.771V195.4H411.121z"/>
<path fill="#FFFFFF" d="M422.91,183.32v12.08h-2.771v-12.08h-3.916v-2.156h10.605v2.156H422.91z"/>
<path fill="#FFFFFF" d="M427.711,195.4v-2.42h2.641v2.42H427.711z"/>
</svg>
