<?xml version="1.0" encoding="utf-8"?>
<!-- Generator: Adobe Illustrator 15.0.2, SVG Export Plug-In  -->
<!DOCTYPE svg PUBLIC "-//W3C//DTD SVG 1.1//EN" "http://www.w3.org/Graphics/SVG/1.1/DTD/svg11.dtd" [
	<!ENTITY ns_flows "http://ns.adobe.com/Flows/1.0/">
]>
<svg version="1.1"
	 xmlns="http://www.w3.org/2000/svg" xmlns:xlink="http://www.w3.org/1999/xlink" xmlns:a="http://ns.adobe.com/AdobeSVGViewerExtensions/3.0/"
	 x="0px" y="0px" width="280px" height="100px" viewBox="0 0 280 100" overflow="visible" enable-background="new 0 0 280 100"
	 xml:space="preserve">
<defs>
</defs>
<rect opacity="0.9" fill="#FFFFFF" width="280" height="100"/>
<path fill-rule="evenodd" clip-rule="evenodd" fill="#A0BE28" d="M249.735,23.024c-3.122-2.524-6.925-4.237-11.093-4.826
	c0.565,0.726,0.904,1.624,0.904,2.598c0,2.415-2.053,4.37-4.583,4.37c-2.532,0-4.583-1.955-4.583-4.37
	c0-0.896,0.28-1.729,0.767-2.421c-3.503,0.665-6.724,2.13-9.46,4.202c2.827,1.899,6.075,3.267,9.634,3.932
	C237.943,27.747,244.444,26.334,249.735,23.024z M230.292,37.842c-3.73-4.732-8.789-7.797-14.225-9.102
	c-2.171,3.489-3.428,7.605-3.428,12.018c0,12.089,9.414,21.975,21.311,22.736C237.3,55.191,236.236,45.374,230.292,37.842z
	 M254.77,28.708c-9.556,6.121-14.247,18.08-10.691,29.43c0.343,1.097,0.759,2.148,1.229,3.164
	c7.638-3.681,12.91-11.497,12.91-20.544C258.218,36.331,256.951,32.205,254.77,28.708z M252.415,25.571
	c-0.48-0.538-0.987-1.054-1.519-1.544c-5.804,3.892-13.074,5.603-20.485,4.218c-3.847-0.718-7.354-2.205-10.402-4.264
	c-0.941,0.865-1.807,1.812-2.592,2.821c5.348,1.553,10.277,4.722,13.988,9.427c6.327,8.021,7.499,18.453,4.003,27.318
	c0.006,0,0.013,0,0.021,0c3.078,0,6.011-0.613,8.69-1.719c-0.486-1.061-0.921-2.16-1.279-3.305
	c-3.749-11.975,1.057-24.576,10.966-31.236C253.37,26.693,252.905,26.121,252.415,25.571"/>
<path fill-rule="evenodd" clip-rule="evenodd" fill="#A0BE28" d="M252.822,61.166c11.981-9.449,14.031-26.819,4.582-38.8
	c-9.448-11.979-26.819-14.03-38.797-4.581c-11.981,9.449-14.032,26.821-4.586,38.799C223.472,68.564,240.845,70.617,252.822,61.166z
	 M220.107,19.689c11.174-8.813,27.375-6.902,36.188,4.272c8.812,11.173,6.9,27.375-4.272,36.189
	c-11.174,8.814-27.377,6.898-36.191-4.271C207.02,44.704,208.932,28.503,220.107,19.689z"/>
<path fill="#878787" d="M16.658,28.49h5.137c3.117,0,4.483,1.955,4.483,4.728c0,2.911-1.707,4.8-4.754,4.8H19.25v6.709h-2.592V28.49
	z M19.25,36.061h1.844c1.385,0,2.591-0.75,2.591-2.797c0-1.75-0.705-2.819-2.774-2.819h-1.66V36.061z"/>
<path fill="#878787" d="M28.322,28.49h2.457v5.32l0.069,0.045c0.681-1.045,1.751-1.682,3-1.682c1.864,0,3.047,0.84,3.047,3.32v9.233
	h-2.454v-8.394c0-1.591-0.479-2.206-1.707-2.206c-1,0-1.955,0.797-1.955,2.389v8.211h-2.457V28.49z"/>
<path fill="#878787" d="M41.215,32.49l2.116,9.189h0.045l1.958-9.189h2.567L44.536,45.18c-0.955,3.344-1.751,3.773-4.274,3.729
	c-0.319,0-0.66-0.045-0.979-0.09v-1.955c0.274,0.045,0.523,0.09,0.796,0.09c0.842,0,1.388-0.181,1.66-0.955l0.319-1L38.579,32.49
	H41.215z"/>
<path fill="#878787" d="M54.996,36.061v-0.318c0-0.977-0.341-1.888-1.614-1.888c-0.978,0-1.752,0.456-1.752,1.593
	c0,0.955,0.434,1.343,1.728,1.797l1.571,0.545c1.82,0.613,2.66,1.592,2.66,3.524c0,2.616-1.911,3.729-4.39,3.729
	c-3.094,0-4.023-1.432-4.023-3.797v-0.455h2.182v0.387c0,1.41,0.501,2.184,1.91,2.184c1.342,0,2.001-0.682,2.001-1.797
	c0-0.908-0.478-1.5-1.343-1.797l-1.999-0.705c-1.842-0.636-2.616-1.568-2.616-3.524c0-2.296,1.662-3.365,4.187-3.365
	c3.113,0,3.818,1.819,3.818,3.342v0.546H54.996z"/>
<path fill="#878787" d="M59.977,28.307h2.455v2.455h-2.455V28.307z M59.977,32.49h2.455v12.236h-2.455V32.49z"/>
<path fill="#878787" d="M69.435,32.173c3.57,0,4.571,2.638,4.571,6.435s-1.159,6.436-4.571,6.436c-3.387,0-4.547-2.639-4.547-6.436
	S65.887,32.173,69.435,32.173z M69.435,43.225c1.798,0,2.116-1.5,2.116-4.617c0-2.705-0.318-4.615-2.116-4.615
	c-1.772,0-2.091,1.91-2.091,4.615C67.344,41.725,67.662,43.225,69.435,43.225z"/>
<path fill="#878787" d="M75.256,32.49h1.684v-3.479h2.456v3.479h2.001v1.82h-2.001v7.299c0,0.955,0.271,1.297,1.113,1.297
	c0.364,0,0.661-0.023,0.888-0.068v1.819c-0.523,0.136-1.205,0.204-1.979,0.204c-1.659,0-2.478-0.453-2.478-2.955v-7.596h-1.684
	V32.49z"/>
<path fill="#878787" d="M83.124,28.49h2.456v5.32l0.067,0.045c0.684-1.045,1.753-1.682,3.003-1.682c1.863,0,3.047,0.84,3.047,3.32
	v9.233H89.24v-8.394c0-1.591-0.477-2.206-1.704-2.206c-1.001,0-1.956,0.797-1.956,2.389v8.211h-2.456V28.49z"/>
<path fill="#878787" d="M96.631,38.926v0.707c0,1.637,0.204,3.729,2.046,3.729c1.751,0,1.956-2.002,1.956-2.73h2.321
	c0,2.707-1.639,4.412-4.299,4.412c-2.001,0-4.479-0.59-4.479-6.254c0-3.205,0.683-6.616,4.525-6.616c3.411,0,4.32,2.046,4.32,5.458
	v1.295H96.631z M100.566,37.244v-0.658c0-1.549-0.5-2.731-1.89-2.731c-1.567,0-2.046,1.548-2.046,3.141v0.249H100.566z"/>
<path fill="#878787" d="M105.5,32.49h2.455v1.911h0.046c0.546-1.364,1.456-2.229,2.841-2.229c0.273,0,0.434,0.044,0.593,0.09v2.503
	c-0.182-0.047-0.614-0.137-1.023-0.137c-1.112,0-2.456,0.5-2.456,2.775v7.322H105.5V32.49z"/>
<path fill="#878787" d="M121.008,42.178c0,0.455,0.273,0.863,0.638,0.863c0.159,0,0.318-0.021,0.409-0.067v1.593
	c-0.296,0.136-0.729,0.295-1.205,0.295c-1.094,0-2.003-0.434-2.07-1.615h-0.047c-0.658,1.207-1.613,1.797-3.046,1.797
	c-1.955,0-3.184-1.091-3.184-3.434c0-2.729,1.182-3.297,2.843-3.842l1.911-0.523c0.886-0.249,1.432-0.5,1.432-1.57
	c0-1.113-0.386-1.819-1.683-1.819c-1.637,0-1.865,1.161-1.865,2.344h-2.319c0-2.593,1.068-4.025,4.298-4.025
	c2.161,0,3.889,0.84,3.889,3.002V42.178z M118.688,38.268c-0.636,0.499-2.001,0.795-2.729,1.137
	c-0.704,0.341-0.999,1.068-0.999,1.977c0,1.023,0.5,1.844,1.522,1.844c1.478,0,2.206-1.114,2.206-2.911V38.268z"/>
<path fill="#878787" d="M123.964,32.49h2.319v1.502h0.044c0.502-1.092,1.41-1.819,2.753-1.819c2.798,0,3.935,2.388,3.935,6.594
	c0,5.142-2.092,6.276-3.776,6.276c-1.317,0-2.319-0.659-2.773-1.75h-0.047v5.435h-2.454V32.49z M128.374,43.087
	c1.41,0,2.048-1.044,2.048-4.433c0-2.775-0.365-4.527-2.07-4.527c-1.682,0-2.068,1.729-2.068,4.346
	C126.283,41.405,126.646,43.087,128.374,43.087z"/>
<path fill="#878787" d="M135.469,28.307h2.456v2.455h-2.456V28.307z M135.469,32.49h2.456v12.236h-2.456V32.49z"/>
<path fill="#878787" d="M142.973,38.926v0.707c0,1.637,0.205,3.729,2.047,3.729c1.751,0,1.955-2.002,1.955-2.73h2.319
	c0,2.707-1.636,4.412-4.296,4.412c-2.002,0-4.479-0.59-4.479-6.254c0-3.205,0.681-6.616,4.524-6.616
	c3.411,0,4.321,2.046,4.321,5.458v1.295H142.973z M146.907,37.244v-0.658c0-1.549-0.5-2.731-1.888-2.731
	c-1.569,0-2.047,1.548-2.047,3.141v0.249H146.907z"/>
<path fill="#878787" d="M151.977,28.49h1.364v5.842h0.046c0.341-1.229,1.524-1.955,2.957-1.955c1.842,0,3.092,0.957,3.092,3.23
	v9.119h-1.363v-8.732c0-1.662-0.683-2.479-2.068-2.479c-1.594,0-2.663,1.227-2.663,3.092v8.119h-1.364V28.49z"/>
<path fill="#878787" d="M162.529,32.65h1.364v8.506c0,1.955,0.659,2.705,2.091,2.705c1.547,0,2.639-1.229,2.639-3.094V32.65h1.364
	v12.076h-1.229v-1.686h-0.046c-0.683,1.343-1.864,1.957-3.093,1.957c-1.841,0-3.091-0.955-3.091-3.229V32.65z"/>
<path fill="#878787" d="M172.943,28.49h1.363v5.979h0.047c0.293-1.273,1.316-2.092,2.818-2.092c2.661,0,3.865,2.139,3.865,6.299
	c0,4.184-1.204,6.322-3.865,6.322c-1.433,0-2.591-0.889-2.956-2.274h-0.045v2.003h-1.228V28.49z M176.944,43.861
	c1.364,0,2.638-0.705,2.638-5.186c0-4.457-1.273-5.16-2.638-5.16c-1.387,0-2.638,0.703-2.638,5.16
	C174.307,43.156,175.558,43.861,176.944,43.861z"/>
<path fill="#878787" d="M191.066,40.723c-0.204,2.57-1.614,4.275-3.888,4.275c-2.549,0-4.048-1.773-4.048-6.322
	c0-4.184,1.499-6.299,4.159-6.299c2.684,0,3.89,1.842,3.89,5.867v0.5h-6.594v0.568c0,3.479,1.227,4.549,2.568,4.549
	c1.432,0,2.319-1.023,2.547-3.139H191.066z M189.724,37.608c-0.046-3.003-0.886-4.093-2.569-4.093c-1.683,0-2.524,1.09-2.568,4.093
	H189.724z"/>
<path fill="#878787" d="M193.77,32.65h1.366v1.889h0.046c0.522-1.344,1.637-2.162,3.047-2.162c0.157,0,0.318,0.021,0.478,0.068
	v1.364c-0.228-0.046-0.454-0.067-0.661-0.067c-1.501,0-2.909,1.09-2.909,3.433v7.552h-1.366V32.65z"/>
<path fill="#878787" d="M110.234,50.818h1.195l3.172,8.119h-1.194l-0.886-2.444h-3.433l-0.911,2.444h-1.113L110.234,50.818z
	 M109.429,55.582h2.751l-1.353-3.785h-0.022L109.429,55.582z"/>
<path fill="#878787" d="M120.104,58.938h-0.91v-0.934h-0.022c-0.409,0.729-1.068,1.068-1.91,1.068c-1.547,0-2.025-0.885-2.025-2.148
	v-3.865h0.969v3.982c0,0.713,0.454,1.18,1.194,1.18c1.17,0,1.738-0.785,1.738-1.842v-3.32h0.967V58.938z"/>
<path fill="#878787" d="M122.152,57.084c0.035,0.863,0.785,1.137,1.579,1.137c0.603,0,1.421-0.136,1.421-0.876
	c0-0.749-0.953-0.875-1.921-1.09c-0.953-0.219-1.922-0.536-1.922-1.66c0-1.183,1.173-1.673,2.196-1.673
	c1.295,0,2.329,0.409,2.408,1.842h-0.964c-0.069-0.749-0.729-0.988-1.366-0.988c-0.58,0-1.251,0.16-1.251,0.751
	c0,0.694,1.023,0.806,1.922,1.022c0.967,0.216,1.922,0.535,1.922,1.672c0,1.398-1.308,1.852-2.502,1.852
	c-1.317,0-2.434-0.533-2.49-1.988H122.152z"/>
<path fill="#878787" d="M135.42,57.073c-0.262,1.294-1.194,1.999-2.512,1.999c-1.876,0-2.765-1.295-2.819-3.09
	c0-1.764,1.159-3.061,2.762-3.061c2.08,0,2.717,1.943,2.66,3.366h-4.398c-0.036,1.023,0.542,1.933,1.829,1.933
	c0.796,0,1.352-0.387,1.525-1.147H135.42z M134.487,55.436c-0.044-0.922-0.739-1.66-1.693-1.66c-1.012,0-1.615,0.762-1.682,1.66
	H134.487z"/>
<path fill="#878787" d="M137.536,52.001h-0.968v-1.183h0.968V52.001z M136.568,53.059h0.968v5.879h-0.968V53.059z"/>
<path fill="#878787" d="M144.107,58.438c0,1.91-0.878,2.887-2.73,2.887c-1.101,0-2.376-0.443-2.433-1.727h0.967
	c0.046,0.703,0.886,0.953,1.523,0.953c1.262,0,1.763-0.908,1.763-2.229v-0.386h-0.022c-0.318,0.716-1.093,1.069-1.831,1.069
	c-1.752,0-2.626-1.377-2.626-2.98c0-1.386,0.683-3.104,2.717-3.104c0.74,0,1.397,0.33,1.751,0.979h0.012v-0.842h0.91V58.438z
	 M143.149,55.879c0-1.035-0.453-2.104-1.67-2.104c-1.239,0-1.738,1.012-1.738,2.137c0,1.059,0.388,2.24,1.658,2.24
	C142.674,58.152,143.149,56.981,143.149,55.879z"/>
<path fill="#878787" d="M150.575,57.073c-0.261,1.294-1.193,1.999-2.513,1.999c-1.876,0-2.763-1.295-2.819-3.09
	c0-1.764,1.158-3.061,2.763-3.061c2.079,0,2.717,1.943,2.662,3.366h-4.401c-0.034,1.023,0.545,1.933,1.83,1.933
	c0.797,0,1.354-0.387,1.524-1.147H150.575z M149.643,55.436c-0.045-0.922-0.738-1.66-1.693-1.66c-1.013,0-1.613,0.762-1.683,1.66
	H149.643z"/>
<path fill="#878787" d="M151.668,53.059h0.908v0.934h0.022c0.41-0.729,1.067-1.07,1.911-1.07c1.545,0,2.024,0.889,2.024,2.148v3.867
	h-0.968v-3.979c0-0.717-0.454-1.184-1.194-1.184c-1.171,0-1.739,0.783-1.739,1.842v3.32h-0.965V53.059z"/>
<path fill="#878787" d="M163.001,57.073c-0.26,1.294-1.193,1.999-2.51,1.999c-1.878,0-2.765-1.295-2.821-3.09
	c0-1.764,1.159-3.061,2.764-3.061c2.08,0,2.716,1.943,2.66,3.366h-4.4c-0.034,1.023,0.544,1.933,1.83,1.933
	c0.796,0,1.353-0.387,1.523-1.147H163.001z M162.069,55.436c-0.043-0.922-0.738-1.66-1.695-1.66c-1.008,0-1.612,0.762-1.681,1.66
	H162.069z"/>
<path fill="#878787" d="M164.058,53.059h0.911v1.238h0.023c0.467-0.943,1.114-1.408,2.16-1.375v1.023
	c-1.558,0-2.126,0.888-2.126,2.376v2.616h-0.969V53.059z"/>
<path fill="#878787" d="M171.199,50.818h1.08v3.491h4.275v-3.491h1.08v8.119h-1.08v-3.717h-4.275v3.717h-1.08V50.818z"/>
<path fill="#878787" d="M184.458,58.914c-0.172,0.104-0.388,0.158-0.694,0.158c-0.5,0-0.819-0.271-0.819-0.909
	c-0.534,0.626-1.251,0.909-2.068,0.909c-1.069,0-1.944-0.476-1.944-1.647c0-1.331,0.987-1.614,1.991-1.808
	c1.068-0.205,1.977-0.137,1.977-0.863c0-0.842-0.694-0.979-1.306-0.979c-0.821,0-1.423,0.25-1.47,1.113h-0.964
	c0.055-1.455,1.18-1.967,2.488-1.967c1.059,0,2.207,0.238,2.207,1.615v3.024c0,0.454,0,0.659,0.307,0.659
	c0.079,0,0.17-0.012,0.296-0.058V58.914z M182.889,55.901c-0.376,0.272-1.104,0.285-1.752,0.397
	c-0.636,0.113-1.183,0.34-1.183,1.059c0,0.637,0.547,0.863,1.138,0.863c1.272,0,1.797-0.796,1.797-1.33V55.901z"/>
<path fill="#878787" d="M185.354,53.059h0.911v0.934h0.021c0.409-0.729,1.067-1.07,1.908-1.07c1.549,0,2.024,0.889,2.024,2.148
	v3.867h-0.965v-3.979c0-0.717-0.455-1.184-1.194-1.184c-1.171,0-1.739,0.783-1.739,1.842v3.32h-0.967V53.059z"/>
<path fill="#878787" d="M196.928,58.938h-0.964v-0.797h-0.023c-0.319,0.648-1.069,0.932-1.877,0.932
	c-1.806,0-2.705-1.432-2.705-3.09c0-1.66,0.887-3.061,2.684-3.061c0.603,0,1.467,0.227,1.898,0.921h0.023v-3.024h0.964V58.938z
	 M194.201,58.221c1.296,0,1.795-1.113,1.795-2.217c0-1.16-0.522-2.229-1.853-2.229c-1.318,0-1.761,1.125-1.761,2.273
	C192.383,57.15,192.949,58.221,194.201,58.221z"/>
</svg>
