<?xml version="1.0" encoding="utf-8"?>
<!-- Generator: Adobe Illustrator 15.0.2, SVG Export Plug-In  -->
<!DOCTYPE svg PUBLIC "-//W3C//DTD SVG 1.1//EN" "http://www.w3.org/Graphics/SVG/1.1/DTD/svg11.dtd" [
	<!ENTITY ns_flows "http://ns.adobe.com/Flows/1.0/">
]>
<svg version="1.1"
	 xmlns="http://www.w3.org/2000/svg" xmlns:xlink="http://www.w3.org/1999/xlink" xmlns:a="http://ns.adobe.com/AdobeSVGViewerExtensions/3.0/"
	 x="0px" y="0px" width="300px" height="1000px" viewBox="80 80 300 1000"
	 overflow="visible" enable-background="new 80 80 300 1000" xml:space="preserve">
<defs>
</defs>
<rect x="80" y="80" display="none" fill="#E7E7E7" width="300" height="1500"/>
<path fill="#A0BE28" d="M100,1005H84.001c-2.201,0-4.001,1.8-4.001,4.001v15.998c0,2.202,1.8,4.001,4.001,4.001H92v-9.023h-3v-3.727
	h3v-1.875c0-2.688,2.018-4.875,4.5-4.875h3v3.715h-3c-0.354,0-0.75,0.482-0.75,1.125v1.91h3.75v3.727h-3.75V1029H100
	c2.2,0,4-1.799,4-4.001v-15.998C104,1006.8,102.2,1005,100,1005z"/>
<path fill="#A0BE28" d="M150,1005h-15.999c-2.201,0-4.001,1.8-4.001,4.001v15.998c0,2.202,1.8,4.001,4.001,4.001H150
	c2.2,0,4-1.799,4-4.001v-15.998C154,1006.8,152.2,1005,150,1005L150,1005z M148,1022.602c0,1.048-0.857,1.885-1.896,1.885h-4.119
	c-3.308,0-5.984-2.883-5.984-6.441v-6.646c0-1.048,0.842-1.898,1.88-1.898s1.823,0.851,1.823,1.898v1.852h6.417
	c1.038,0,1.88,0.839,1.88,1.875c0,1.035-0.842,1.873-1.88,1.873h-6.417v1.047c0,1.441,1.13,2.705,2.344,2.705h4.12
	C147.205,1020.75,148,1021.553,148,1022.602z"/>
<path fill="#A0BE28" d="M200,1005h-15.999c-2.201,0-4.001,1.8-4.001,4.001v15.998c0,2.202,1.8,4.001,4.001,4.001H200
	c2.2,0,4-1.799,4-4.001v-15.998C204,1006.8,202.2,1005,200,1005z M186.383,1024.636c-1.123,0-2.037-0.907-2.037-2.029
	c0-1.118,0.914-2.034,2.037-2.034c1.129,0,2.041,0.916,2.041,2.034C188.424,1023.729,187.512,1024.636,186.383,1024.636z
	 M191.506,1024.654c0-1.918-0.746-3.723-2.098-5.074c-1.353-1.352-3.148-2.1-5.061-2.1v-2.935c5.57,0,10.104,4.534,10.104,10.108
	H191.506z M196.713,1024.654c0-6.822-5.547-12.375-12.361-12.375v-2.934c8.438,0,15.303,6.869,15.303,15.309H196.713z"/>
<path fill="#8CA0AA" d="M100,1055H84.001c-2.201,0-4.001,1.8-4.001,4.001v15.998c0,2.202,1.8,4.001,4.001,4.001H92v-9.023h-3v-3.727
	h3v-1.875c0-2.688,2.018-4.875,4.5-4.875h3v3.715h-3c-0.354,0-0.75,0.482-0.75,1.125v1.91h3.75v3.727h-3.75V1079H100
	c2.2,0,4-1.799,4-4.001v-15.998C104,1056.8,102.2,1055,100,1055z"/>
<path fill="#8CA0AA" d="M150,1055h-15.999c-2.201,0-4.001,1.8-4.001,4.001v15.998c0,2.202,1.8,4.001,4.001,4.001H150
	c2.2,0,4-1.799,4-4.001v-15.998C154,1056.8,152.2,1055,150,1055L150,1055z M148,1072.602c0,1.048-0.857,1.885-1.896,1.885h-4.119
	c-3.308,0-5.984-2.883-5.984-6.441v-6.646c0-1.048,0.842-1.898,1.88-1.898s1.823,0.851,1.823,1.898v1.852h6.417
	c1.038,0,1.88,0.839,1.88,1.875c0,1.035-0.842,1.873-1.88,1.873h-6.417v1.047c0,1.441,1.13,2.705,2.344,2.705h4.12
	C147.205,1070.75,148,1071.553,148,1072.602z"/>
<path fill="#8CA0AA" d="M200,1055h-15.999c-2.201,0-4.001,1.8-4.001,4.001v15.998c0,2.202,1.8,4.001,4.001,4.001H200
	c2.2,0,4-1.799,4-4.001v-15.998C204,1056.8,202.2,1055,200,1055z M186.383,1074.636c-1.123,0-2.037-0.907-2.037-2.029
	c0-1.118,0.914-2.034,2.037-2.034c1.129,0,2.041,0.916,2.041,2.034C188.424,1073.729,187.512,1074.636,186.383,1074.636z
	 M191.506,1074.654c0-1.918-0.746-3.723-2.098-5.074c-1.353-1.352-3.148-2.1-5.061-2.1v-2.935c5.57,0,10.104,4.534,10.104,10.108
	H191.506z M196.713,1074.654c0-6.822-5.547-12.375-12.361-12.375v-2.934c8.438,0,15.303,6.869,15.303,15.309H196.713z"/>
<rect x="80" y="286" fill="none" width="10" height="10"/>
<polygon fill="#BBBBBB" points="83,296 88,291 83,286 "/>
<rect x="80" y="311" fill="none" width="10" height="10"/>
<polygon fill="#8CA0AA" points="83,321 88,316 83,311 "/>
<rect x="80" y="336" fill="none" width="10" height="10"/>
<polygon fill="#A0BE28" points="83,346 88,341 83,336 "/>
<rect x="80" y="411" fill="none" width="10" height="10"/>
<polygon fill="#8CA0AA" points="80,414 85,419 90,414 "/>
<rect x="80" y="386" fill="none" width="10" height="10"/>
<polygon fill="#BBBBBB" points="80,389 85,394 90,389 "/>
<rect x="80" y="436" fill="none" width="10" height="10"/>
<polygon fill="#A0BE28" points="80,439 85,444 90,439 "/>
<rect x="80" y="536" fill="none" width="10" height="10"/>
<polygon fill="#A0BE28" points="88,544 88,537 81,537 "/>
<rect x="80" y="511" fill="none" width="10" height="10"/>
<polygon fill="#8CA0AA" points="88,519 88,512 81,512 "/>
<rect x="80" y="486" fill="none" width="10" height="10"/>
<polygon fill="#BBBBBB" points="88,494 88,487 81,487 "/>
<line fill="none" stroke="#BBBBBB" stroke-miterlimit="10" x1="94.5" y1="280" x2="94.5" y2="305"/>
<line fill="none" stroke="#8CA0AA" stroke-miterlimit="10" x1="94.5" y1="305" x2="94.5" y2="330"/>
<line fill="none" stroke="#A0BE28" stroke-miterlimit="10" x1="94.5" y1="330" x2="94.5" y2="355"/>
<line fill="none" stroke="#BBBBBB" stroke-miterlimit="10" x1="94.5" y1="380" x2="94.5" y2="405"/>
<line fill="none" stroke="#8CA0AA" stroke-miterlimit="10" x1="94.5" y1="405" x2="94.5" y2="430"/>
<line fill="none" stroke="#A0BE28" stroke-miterlimit="10" x1="94.5" y1="430" x2="94.5" y2="455"/>
<rect x="80" y="86" fill="none" width="10" height="10"/>
<polygon fill="#BBBBBB" points="87,86 82,91 87,96 "/>
<rect x="80" y="111" fill="none" width="10" height="10"/>
<polygon fill="#8CA0AA" points="87,111 82,116 87,121 "/>
<rect x="80" y="136" fill="none" width="10" height="10"/>
<polygon fill="#A0BE28" points="87,136 82,141 87,146 "/>
<rect x="80" y="211" fill="none" width="10" height="10"/>
<rect x="80" y="186" fill="none" width="10" height="10"/>
<rect x="80" y="236" fill="none" width="10" height="10"/>
<line fill="none" stroke="#BBBBBB" stroke-miterlimit="10" x1="94.5" y1="80" x2="94.5" y2="105"/>
<line fill="none" stroke="#8CA0AA" stroke-miterlimit="10" x1="94.5" y1="105" x2="94.5" y2="130"/>
<line fill="none" stroke="#A0BE28" stroke-miterlimit="10" x1="94.5" y1="130" x2="94.5" y2="155"/>
<line fill="none" stroke="#BBBBBB" stroke-miterlimit="10" x1="94.5" y1="180" x2="94.5" y2="205"/>
<line fill="none" stroke="#8CA0AA" stroke-miterlimit="10" x1="94.5" y1="205" x2="94.5" y2="230"/>
<line fill="none" stroke="#A0BE28" stroke-miterlimit="10" x1="94.5" y1="230" x2="94.5" y2="255"/>
<line fill="none" stroke="#BBBBBB" stroke-miterlimit="10" x1="94.5" y1="480" x2="94.5" y2="505"/>
<line fill="none" stroke="#8CA0AA" stroke-miterlimit="10" x1="94.5" y1="505" x2="94.5" y2="530"/>
<line fill="none" stroke="#A0BE28" stroke-miterlimit="10" x1="94.5" y1="530" x2="94.5" y2="555"/>
<rect x="81" y="187" fill="#BBBBBB" width="2" height="2"/>
<rect x="84" y="187" fill="#BBBBBB" width="6" height="2"/>
<rect x="81" y="190" fill="#BBBBBB" width="2" height="2"/>
<rect x="84" y="190" fill="#BBBBBB" width="6" height="2"/>
<rect x="81" y="193" fill="#BBBBBB" width="2" height="2"/>
<rect x="84" y="193" fill="#BBBBBB" width="6" height="2"/>
<rect x="81" y="212" fill="#8CA0AA" width="2" height="2"/>
<rect x="84" y="212" fill="#8CA0AA" width="6" height="2"/>
<rect x="81" y="215" fill="#8CA0AA" width="2" height="2"/>
<rect x="84" y="215" fill="#8CA0AA" width="6" height="2"/>
<rect x="81" y="218" fill="#8CA0AA" width="2" height="2"/>
<rect x="84" y="218" fill="#8CA0AA" width="6" height="2"/>
<rect x="81" y="237" fill="#A0BE28" width="2" height="2"/>
<rect x="84" y="237" fill="#A0BE28" width="6" height="2"/>
<rect x="81" y="240" fill="#A0BE28" width="2" height="2"/>
<rect x="84" y="240" fill="#A0BE28" width="6" height="2"/>
<rect x="81" y="243" fill="#A0BE28" width="2" height="2"/>
<rect x="84" y="243" fill="#A0BE28" width="6" height="2"/>
<rect x="370" y="86" fill="none" width="10" height="10"/>
<polygon fill="#BBBBBB" points="373,96 378,91 373,86 "/>
<rect x="370" y="111" fill="none" width="10" height="10"/>
<polygon fill="#8CA0AA" points="373,121 378,116 373,111 "/>
<rect x="370" y="136" fill="none" width="10" height="10"/>
<polygon fill="#A0BE28" points="373,146 378,141 373,136 "/>
<line fill="none" stroke="#BBBBBB" stroke-miterlimit="10" x1="365.5" y1="80" x2="365.5" y2="105"/>
<line fill="none" stroke="#8CA0AA" stroke-miterlimit="10" x1="365.5" y1="105" x2="365.5" y2="130"/>
<line fill="none" stroke="#A0BE28" stroke-miterlimit="10" x1="365.5" y1="130" x2="365.5" y2="155"/>
<path fill="#EAEAEA" d="M215,565v30h30v-30H215z M230,583c-1.657,0-3-1.344-3-3s1.343-3,3-3s3,1.344,3,3S231.657,583,230,583z"/>
<polygon fill="#A0BE28" points="80,748 88,740 80,732 "/>
<rect x="360" y="830" fill="none" width="20" height="20"/>
<polygon fill="#A0BE28" points="360,836 370,846 380,836 "/>
<rect x="360" y="780" fill="none" width="20" height="20"/>
<polygon fill="#BBBBBB" points="360,786 370,796 380,786 "/>
<rect x="368" y="630" fill="none" width="12" height="12"/>
<polygon fill="#5E5E5E" points="368,633 374,639 380,633 "/>
<rect x="368" y="680" fill="none" width="12" height="12"/>
<polygon fill="#A0BE28" points="368,683 374,689 380,683 "/>
<polygon fill="#FFFFFF" points="248.51,973.51 230,955 211.49,973.51 "/>
<polygon fill="#FFFFFF" points="80,598.51 98.51,580 80,561.49 "/>
<circle fill="#A5C837" cx="358.5" cy="883.5" r="3.5"/>
<circle fill="#A5C837" cx="333.5" cy="908.5" r="2.5"/>
<circle fill="#8CA0AA" cx="308.5" cy="933.5" r="1.5"/>
<rect x="280" y="980" display="none" opacity="0.15" fill="#FF00FF" width="100" height="100"/>
<line display="none" fill="none" stroke="#A6FFFF" x1="0" y1="104.5" x2="798" y2="104.5"/>
<line display="none" fill="none" stroke="#A6FFFF" x1="0" y1="129.5" x2="798" y2="129.5"/>
<line display="none" fill="none" stroke="#A6FFFF" x1="0" y1="154.5" x2="798" y2="154.5"/>
<line display="none" fill="none" stroke="#00FFFF" x1="0" y1="179.5" x2="798" y2="179.5"/>
<line display="none" fill="none" stroke="#A6FFFF" x1="0" y1="204.5" x2="798" y2="204.5"/>
<line display="none" fill="none" stroke="#A6FFFF" x1="0" y1="229.5" x2="798" y2="229.5"/>
<line display="none" fill="none" stroke="#A6FFFF" x1="0" y1="254.5" x2="798" y2="254.5"/>
<line display="none" fill="none" stroke="#00FFFF" x1="0" y1="279.5" x2="798" y2="279.5"/>
<line display="none" fill="none" stroke="#A6FFFF" x1="0" y1="304.5" x2="798" y2="304.5"/>
<line display="none" fill="none" stroke="#A6FFFF" x1="0" y1="329.5" x2="798" y2="329.5"/>
<line display="none" fill="none" stroke="#A6FFFF" x1="0" y1="354.5" x2="798" y2="354.5"/>
<line display="none" fill="none" stroke="#00FFFF" x1="0" y1="379.5" x2="798" y2="379.5"/>
<line display="none" fill="none" stroke="#A6FFFF" x1="0" y1="404.5" x2="798" y2="404.5"/>
<line display="none" fill="none" stroke="#A6FFFF" x1="0" y1="429.5" x2="798" y2="429.5"/>
<line display="none" fill="none" stroke="#A6FFFF" x1="0" y1="454.5" x2="798" y2="454.5"/>
<line display="none" fill="none" stroke="#00FFFF" x1="0" y1="479.5" x2="798" y2="479.5"/>
<line display="none" fill="none" stroke="#A6FFFF" x1="0" y1="504.5" x2="798" y2="504.5"/>
<line display="none" fill="none" stroke="#A6FFFF" x1="0" y1="529.5" x2="798" y2="529.5"/>
<line display="none" fill="none" stroke="#A6FFFF" x1="0" y1="554.5" x2="798" y2="554.5"/>
<line display="none" fill="none" stroke="#00FFFF" x1="0" y1="579.5" x2="798" y2="579.5"/>
<line display="none" fill="none" stroke="#A6FFFF" x1="0" y1="604.5" x2="798" y2="604.5"/>
<line display="none" fill="none" stroke="#A6FFFF" x1="0" y1="629.5" x2="798" y2="629.5"/>
<line display="none" fill="none" stroke="#A6FFFF" x1="0" y1="654.5" x2="798" y2="654.5"/>
<line display="none" fill="none" stroke="#00FFFF" x1="0" y1="679.5" x2="798" y2="679.5"/>
<line display="none" fill="none" stroke="#A6FFFF" x1="0" y1="704.5" x2="798" y2="704.5"/>
<line display="none" fill="none" stroke="#A6FFFF" x1="0" y1="729.5" x2="798" y2="729.5"/>
<line display="none" fill="none" stroke="#A6FFFF" x1="0" y1="754.5" x2="798" y2="754.5"/>
<line display="none" fill="none" stroke="#00FFFF" x1="0" y1="779.5" x2="798" y2="779.5"/>
<line display="none" fill="none" stroke="#A6FFFF" x1="0" y1="804.5" x2="798" y2="804.5"/>
<line display="none" fill="none" stroke="#A6FFFF" x1="0" y1="829.5" x2="798" y2="829.5"/>
<line display="none" fill="none" stroke="#A6FFFF" x1="0" y1="854.5" x2="798" y2="854.5"/>
<line display="none" fill="none" stroke="#00FFFF" x1="0" y1="879.5" x2="798" y2="879.5"/>
<line display="none" fill="none" stroke="#A6FFFF" x1="0" y1="904.5" x2="798" y2="904.5"/>
<line display="none" fill="none" stroke="#A6FFFF" x1="0" y1="929.5" x2="798" y2="929.5"/>
<line display="none" fill="none" stroke="#A6FFFF" x1="0" y1="954.5" x2="798" y2="954.5"/>
<line display="none" fill="none" stroke="#00FFFF" x1="0" y1="979.5" x2="798" y2="979.5"/>
<line display="none" fill="none" stroke="#A6FFFF" x1="0" y1="1004.5" x2="798" y2="1004.5"/>
<line display="none" fill="none" stroke="#A6FFFF" x1="0" y1="1029.5" x2="798" y2="1029.5"/>
<line display="none" fill="none" stroke="#A6FFFF" x1="0" y1="1054.5" x2="798" y2="1054.5"/>
<line display="none" fill="none" stroke="#00FFFF" x1="0" y1="1079.5" x2="798" y2="1079.5"/>
<line display="none" fill="none" stroke="#A6FFFF" x1="104.5" y1="0" x2="104.5" y2="1580"/>
<line display="none" fill="none" stroke="#A6FFFF" x1="129.5" y1="0" x2="129.5" y2="1580"/>
<line display="none" fill="none" stroke="#A6FFFF" x1="154.5" y1="0" x2="154.5" y2="1580"/>
<line display="none" fill="none" stroke="#00FFFF" x1="179.5" y1="0" x2="179.5" y2="1580"/>
<line display="none" fill="none" stroke="#A6FFFF" x1="204.5" y1="0" x2="204.5" y2="1580"/>
<line display="none" fill="none" stroke="#A6FFFF" x1="229.5" y1="0" x2="229.5" y2="1580"/>
<line display="none" fill="none" stroke="#A6FFFF" x1="254.5" y1="0" x2="254.5" y2="1580"/>
<line display="none" fill="none" stroke="#00FFFF" x1="279.5" y1="0" x2="279.5" y2="1580"/>
<line display="none" fill="none" stroke="#A6FFFF" x1="304.5" y1="0" x2="304.5" y2="1580"/>
<line display="none" fill="none" stroke="#A6FFFF" x1="329.5" y1="0" x2="329.5" y2="1580"/>
<line display="none" fill="none" stroke="#A6FFFF" x1="354.5" y1="0" x2="354.5" y2="1580"/>
<line display="none" fill="none" stroke="#00FFFF" x1="379.5" y1="0" x2="379.5" y2="1580"/>
</svg>
