<?xml version="1.0" encoding="utf-8"?>
<!-- Generator: Adobe Illustrator 15.0.2, SVG Export Plug-In  -->
<!DOCTYPE svg PUBLIC "-//W3C//DTD SVG 1.1//EN" "http://www.w3.org/Graphics/SVG/1.1/DTD/svg11.dtd" [
	<!ENTITY ns_flows "http://ns.adobe.com/Flows/1.0/">
]>
<svg version="1.1"
	 xmlns="http://www.w3.org/2000/svg" xmlns:xlink="http://www.w3.org/1999/xlink" xmlns:a="http://ns.adobe.com/AdobeSVGViewerExtensions/3.0/"
	 x="0px" y="0px" width="376px" height="291px" viewBox="0 0 376 291" overflow="visible" enable-background="new 0 0 376 291"
	 xml:space="preserve">
<defs>
</defs>
<g>
	<defs>
		<rect id="SVGID_1_" width="376" height="291"/>
	</defs>
	<clipPath id="SVGID_2_">
		<use xlink:href="#SVGID_1_"  overflow="visible"/>
	</clipPath>
	<path clip-path="url(#SVGID_2_)" fill-rule="evenodd" clip-rule="evenodd" fill="#F3F5F6" d="M326.667,111.188
		c-22.791-18.426-50.562-30.928-80.99-35.23c4.128,5.301,6.607,11.859,6.607,18.971c0,17.629-14.982,31.9-33.466,31.9
		c-18.481,0-33.457-14.271-33.457-31.9c0-6.539,2.054-12.621,5.595-17.686c-25.579,4.861-49.084,15.562-69.054,30.678
		c20.634,13.871,44.348,23.846,70.332,28.709C240.578,145.666,288.034,135.344,326.667,111.188z M184.712,219.373
		c-27.241-34.562-64.165-56.928-103.846-66.457c-15.851,25.482-25.028,55.525-25.028,87.74c0,88.256,68.732,160.439,155.592,165.984
		C235.877,346.023,228.104,274.357,184.712,219.373z M363.416,152.68c-69.76,44.684-104.013,131.988-78.059,214.859
		c2.516,8.004,5.547,15.688,8.977,23.1c55.769-26.871,94.256-83.932,94.256-149.982C388.59,208.336,379.35,178.211,363.416,152.68z
		 M346.232,129.783c-3.52-3.934-7.215-7.691-11.084-11.275c-42.379,28.408-95.458,40.906-149.564,30.791
		c-28.085-5.246-53.693-16.094-75.941-31.131c-6.865,6.312-13.194,13.221-18.921,20.598c39.046,11.33,75.019,34.471,102.12,68.824
		c46.186,58.553,54.756,134.719,29.233,199.441c0.042,0,0.089,0,0.139,0c22.472,0,43.895-4.477,63.452-12.551
		c-3.556-7.746-6.727-15.773-9.339-24.119c-27.375-87.426,7.712-179.432,80.056-228.049
		C353.197,137.969,349.81,133.791,346.232,129.783"/>
	<g clip-path="url(#SVGID_2_)">
		<path fill-rule="evenodd" clip-rule="evenodd" fill="#F3F5F6" d="M349.209,389.652c87.46-68.996,102.436-195.803,33.444-283.27
			C313.669,18.932,186.85,3.947,99.411,72.938C11.93,141.916-3.038,268.742,65.938,356.195
			C134.923,443.662,261.756,458.652,349.209,389.652z M110.355,86.84c81.579-64.34,199.855-50.385,264.202,31.18
			c64.324,81.584,50.383,199.869-31.194,264.209c-81.579,64.354-199.864,50.369-264.217-31.189
			C14.815,269.471,28.771,151.186,110.355,86.84z"/>
	</g>
</g>
</svg>
