<?xml version="1.0" encoding="utf-8"?>
<!-- Generator: Adobe Illustrator 15.0.2, SVG Export Plug-In  -->
<!DOCTYPE svg PUBLIC "-//W3C//DTD SVG 1.1//EN" "http://www.w3.org/Graphics/SVG/1.1/DTD/svg11.dtd" [
	<!ENTITY ns_flows "http://ns.adobe.com/Flows/1.0/">
]>
<svg version="1.1"
	 xmlns="http://www.w3.org/2000/svg" xmlns:xlink="http://www.w3.org/1999/xlink" xmlns:a="http://ns.adobe.com/AdobeSVGViewerExtensions/3.0/"
	 x="0px" y="0px" width="250px" height="56px" viewBox="0 0 250 56" overflow="visible" enable-background="new 0 0 250 56"
	 xml:space="preserve">
<defs>
</defs>
<path fill-rule="evenodd" clip-rule="evenodd" fill="#A0BE28" d="M236.211,11.327c-3.164-2.558-7.018-4.294-11.242-4.891
	c0.573,0.736,0.917,1.646,0.917,2.633c0,2.448-2.08,4.429-4.645,4.429c-2.566,0-4.645-1.981-4.645-4.429
	c0-0.907,0.283-1.751,0.776-2.454c-3.55,0.674-6.813,2.159-9.587,4.258c2.865,1.925,6.157,3.311,9.764,3.985
	C224.261,16.113,230.849,14.681,236.211,11.327z M216.506,26.344c-3.78-4.796-8.907-7.901-14.415-9.224
	c-2.2,3.537-3.475,7.708-3.475,12.179c0,12.251,9.541,22.271,21.598,23.042C223.608,43.927,222.53,33.978,216.506,26.344z
	 M241.312,17.086c-9.684,6.203-14.438,18.323-10.835,29.826c0.348,1.111,0.77,2.178,1.246,3.207
	c7.74-3.73,13.084-11.651,13.084-20.82C244.808,24.812,243.523,20.631,241.312,17.086z M238.927,13.908
	c-0.487-0.545-1.001-1.068-1.539-1.565c-5.882,3.944-13.25,5.678-20.761,4.275c-3.898-0.728-7.453-2.234-10.542-4.322
	c-0.954,0.876-1.831,1.836-2.627,2.859c5.42,1.574,10.416,4.786,14.177,9.554c6.412,8.128,7.6,18.701,4.057,27.686
	c0.006,0,0.013,0,0.021,0c3.12,0,6.092-0.622,8.808-1.742c-0.493-1.074-0.934-2.189-1.297-3.349
	c-3.799-12.136,1.071-24.907,11.113-31.656C239.895,15.045,239.424,14.465,238.927,13.908"/>
<path fill-rule="evenodd" clip-rule="evenodd" fill="#A0BE28" d="M239.34,49.981c12.143-9.576,14.22-27.18,4.644-39.322
	c-9.575-12.14-27.181-14.219-39.318-4.643c-12.143,9.576-14.222,27.182-4.648,39.321C209.594,57.479,227.201,59.56,239.34,49.981z
	 M206.185,7.947c11.324-8.932,27.743-6.995,36.675,4.33c8.931,11.324,6.993,27.743-4.329,36.675
	c-11.324,8.933-27.745,6.991-36.679-4.329C192.921,33.298,194.858,16.879,206.185,7.947z"/>
<path fill="#878787" d="M0,16.866h5.206c3.159,0,4.544,1.981,4.544,4.792c0,2.95-1.73,4.864-4.818,4.864H2.626v6.8H0V16.866z
	 M2.626,24.538h1.869c1.403,0,2.625-0.76,2.625-2.834c0-1.773-0.714-2.857-2.812-2.857H2.626V24.538z"/>
<path fill="#878787" d="M11.821,16.866h2.49v5.391l0.07,0.046c0.69-1.059,1.774-1.704,3.04-1.704c1.89,0,3.088,0.851,3.088,3.365
	v9.357h-2.487v-8.507c0-1.612-0.486-2.235-1.73-2.235c-1.014,0-1.981,0.808-1.981,2.421v8.321h-2.49V16.866z"/>
<path fill="#878787" d="M24.887,20.92l2.145,9.313h0.046l1.984-9.313h2.602l-3.41,12.86c-0.968,3.389-1.775,3.824-4.332,3.778
	c-0.324,0-0.669-0.045-0.992-0.091v-1.981c0.278,0.046,0.53,0.091,0.807,0.091c0.853,0,1.406-0.183,1.683-0.968l0.323-1.014
	L22.216,20.92H24.887z"/>
<path fill="#878787" d="M38.854,24.538v-0.322c0-0.989-0.346-1.913-1.636-1.913c-0.991,0-1.775,0.462-1.775,1.614
	c0,0.968,0.439,1.36,1.751,1.821l1.592,0.552c1.845,0.622,2.696,1.613,2.696,3.572c0,2.651-1.937,3.779-4.449,3.779
	c-3.135,0-4.078-1.451-4.078-3.848v-0.461h2.211v0.392c0,1.429,0.507,2.213,1.936,2.213c1.36,0,2.028-0.69,2.028-1.821
	c0-0.92-0.484-1.521-1.361-1.821l-2.026-0.714c-1.867-0.645-2.651-1.59-2.651-3.572c0-2.326,1.685-3.41,4.243-3.41
	c3.155,0,3.87,1.844,3.87,3.387v0.553H38.854z"/>
<path fill="#878787" d="M43.901,16.68h2.488v2.488h-2.488V16.68z M43.901,20.92h2.488v12.401h-2.488V20.92z"/>
<path fill="#878787" d="M53.486,20.599c3.619,0,4.633,2.673,4.633,6.521c0,3.849-1.175,6.522-4.633,6.522
	c-3.432,0-4.608-2.674-4.608-6.522C48.878,23.271,49.891,20.599,53.486,20.599z M53.486,31.799c1.822,0,2.145-1.521,2.145-4.68
	c0-2.741-0.323-4.677-2.145-4.677c-1.796,0-2.119,1.936-2.119,4.677C51.367,30.278,51.689,31.799,53.486,31.799z"/>
<path fill="#878787" d="M59.386,20.92h1.706v-3.526h2.489v3.526h2.028v1.845h-2.028v7.397c0,0.968,0.275,1.314,1.128,1.314
	c0.369,0,0.67-0.024,0.9-0.069v1.844c-0.531,0.138-1.221,0.207-2.006,0.207c-1.682,0-2.511-0.46-2.511-2.995v-7.698h-1.706V20.92z"
	/>
<path fill="#878787" d="M67.359,16.866h2.489v5.391l0.068,0.046c0.693-1.059,1.776-1.704,3.043-1.704
	c1.889,0,3.088,0.851,3.088,3.365v9.357h-2.49v-8.507c0-1.612-0.483-2.235-1.727-2.235c-1.015,0-1.982,0.808-1.982,2.421v8.321
	h-2.489V16.866z"/>
<path fill="#878787" d="M81.048,27.442v0.717c0,1.658,0.207,3.778,2.074,3.778c1.774,0,1.982-2.029,1.982-2.768h2.353
	c0,2.744-1.661,4.472-4.356,4.472c-2.028,0-4.54-0.598-4.54-6.338c0-3.248,0.691-6.705,4.586-6.705c3.457,0,4.378,2.073,4.378,5.531
	v1.312H81.048z M85.037,25.738v-0.667c0-1.57-0.507-2.769-1.915-2.769c-1.589,0-2.074,1.568-2.074,3.183v0.253H85.037z"/>
<path fill="#878787" d="M90.036,20.92h2.488v1.938h0.046c0.553-1.383,1.476-2.259,2.879-2.259c0.277,0,0.439,0.044,0.601,0.091
	v2.537c-0.184-0.048-0.623-0.139-1.037-0.139c-1.127,0-2.489,0.507-2.489,2.812v7.421h-2.488V20.92z"/>
<path fill="#878787" d="M105.752,30.738c0,0.461,0.277,0.874,0.646,0.874c0.161,0,0.323-0.021,0.415-0.067v1.613
	c-0.3,0.138-0.738,0.3-1.221,0.3c-1.108,0-2.03-0.439-2.098-1.638h-0.047c-0.667,1.224-1.635,1.821-3.087,1.821
	c-1.981,0-3.227-1.105-3.227-3.479c0-2.766,1.198-3.342,2.881-3.894l1.937-0.53c0.898-0.253,1.451-0.507,1.451-1.592
	c0-1.128-0.391-1.844-1.706-1.844c-1.659,0-1.89,1.177-1.89,2.375h-2.351c0-2.627,1.083-4.079,4.355-4.079
	c2.19,0,3.941,0.851,3.941,3.042V30.738z M103.402,26.775c-0.645,0.506-2.028,0.806-2.767,1.151
	c-0.713,0.346-1.012,1.083-1.012,2.004c0,1.037,0.507,1.868,1.543,1.868c1.498,0,2.236-1.129,2.236-2.95V26.775z"/>
<path fill="#878787" d="M108.749,20.92h2.351v1.522h0.044c0.509-1.106,1.429-1.844,2.79-1.844c2.835,0,3.987,2.42,3.987,6.683
	c0,5.21-2.12,6.36-3.827,6.36c-1.335,0-2.351-0.668-2.811-1.773h-0.048v5.508h-2.487V20.92z M113.218,31.659
	c1.429,0,2.076-1.058,2.076-4.492c0-2.812-0.37-4.588-2.098-4.588c-1.705,0-2.096,1.752-2.096,4.404
	C111.099,29.955,111.467,31.659,113.218,31.659z"/>
<path fill="#878787" d="M120.408,16.68h2.489v2.488h-2.489V16.68z M120.408,20.92h2.489v12.401h-2.489V20.92z"/>
<path fill="#878787" d="M128.013,27.442v0.717c0,1.658,0.208,3.778,2.075,3.778c1.774,0,1.981-2.029,1.981-2.768h2.351
	c0,2.744-1.658,4.472-4.354,4.472c-2.029,0-4.54-0.598-4.54-6.338c0-3.248,0.689-6.705,4.585-6.705c3.457,0,4.379,2.073,4.379,5.531
	v1.312H128.013z M132,25.738v-0.667c0-1.57-0.507-2.769-1.913-2.769c-1.591,0-2.075,1.568-2.075,3.183v0.253H132z"/>
<path fill="#878787" d="M137.138,16.866h1.383v5.921h0.046c0.345-1.245,1.545-1.981,2.997-1.981c1.867,0,3.134,0.97,3.134,3.273
	v9.242h-1.382v-8.851c0-1.684-0.692-2.512-2.096-2.512c-1.615,0-2.699,1.243-2.699,3.134v8.229h-1.383V16.866z"/>
<path fill="#878787" d="M147.833,21.082h1.382v8.621c0,1.98,0.668,2.741,2.119,2.741c1.568,0,2.674-1.245,2.674-3.136v-8.227h1.382
	v12.239h-1.245v-1.709h-0.046c-0.692,1.361-1.889,1.983-3.134,1.983c-1.866,0-3.132-0.968-3.132-3.271V21.082z"/>
<path fill="#878787" d="M158.387,16.866h1.382v6.059h0.047c0.297-1.29,1.334-2.119,2.856-2.119c2.697,0,3.917,2.167,3.917,6.383
	c0,4.24-1.22,6.407-3.917,6.407c-1.452,0-2.626-0.9-2.996-2.305h-0.045v2.03h-1.244V16.866z M162.441,32.444
	c1.383,0,2.673-0.715,2.673-5.256c0-4.517-1.29-5.229-2.673-5.229c-1.405,0-2.673,0.713-2.673,5.229
	C159.769,31.729,161.036,32.444,162.441,32.444z"/>
<path fill="#878787" d="M176.753,29.264c-0.206,2.604-1.636,4.332-3.939,4.332c-2.583,0-4.103-1.797-4.103-6.407
	c0-4.239,1.52-6.383,4.215-6.383c2.72,0,3.942,1.866,3.942,5.945v0.507h-6.683v0.576c0,3.526,1.243,4.61,2.603,4.61
	c1.451,0,2.351-1.037,2.582-3.181H176.753z M175.393,26.107c-0.047-3.044-0.897-4.148-2.604-4.148c-1.705,0-2.558,1.104-2.603,4.148
	H175.393z"/>
<path fill="#878787" d="M179.493,21.082h1.384v1.914h0.047c0.529-1.361,1.659-2.19,3.088-2.19c0.159,0,0.322,0.021,0.484,0.069
	v1.382c-0.231-0.046-0.461-0.068-0.671-0.068c-1.521,0-2.948,1.104-2.948,3.479v7.653h-1.384V21.082z"/>
<path fill="#878787" d="M94.834,39.495h1.211l3.214,8.228h-1.21l-0.897-2.477h-3.479l-0.923,2.477h-1.128L94.834,39.495z
	 M94.018,44.322h2.788l-1.371-3.836h-0.023L94.018,44.322z"/>
<path fill="#878787" d="M104.837,47.723h-0.922v-0.946h-0.023c-0.415,0.739-1.083,1.083-1.936,1.083
	c-1.567,0-2.052-0.896-2.052-2.177v-3.918h0.981v4.036c0,0.723,0.46,1.195,1.21,1.195c1.186,0,1.762-0.795,1.762-1.866v-3.365h0.98
	V47.723z"/>
<path fill="#878787" d="M106.913,45.845c0.036,0.875,0.796,1.151,1.6,1.151c0.611,0,1.44-0.137,1.44-0.888
	c0-0.759-0.966-0.887-1.947-1.104c-0.966-0.222-1.948-0.543-1.948-1.682c0-1.199,1.188-1.695,2.226-1.695
	c1.312,0,2.36,0.414,2.441,1.866h-0.977c-0.07-0.759-0.739-1.002-1.385-1.002c-0.588,0-1.268,0.162-1.268,0.762
	c0,0.703,1.037,0.816,1.948,1.036c0.98,0.219,1.948,0.542,1.948,1.694c0,1.417-1.325,1.876-2.536,1.876
	c-1.335,0-2.466-0.54-2.524-2.015H106.913z"/>
<path fill="#878787" d="M120.358,45.834c-0.265,1.311-1.21,2.025-2.545,2.025c-1.901,0-2.802-1.312-2.857-3.131
	c0-1.788,1.174-3.102,2.799-3.102c2.108,0,2.753,1.969,2.696,3.411h-4.458c-0.037,1.037,0.549,1.958,1.854,1.958
	c0.807,0,1.37-0.392,1.546-1.162H120.358z M119.414,44.174c-0.045-0.935-0.75-1.683-1.716-1.683c-1.025,0-1.637,0.772-1.704,1.683
	H119.414z"/>
<path fill="#878787" d="M122.503,40.693h-0.981v-1.198h0.981V40.693z M121.522,41.765h0.981v5.958h-0.981V41.765z"/>
<path fill="#878787" d="M129.163,47.216c0,1.937-0.89,2.926-2.768,2.926c-1.115,0-2.408-0.449-2.465-1.75h0.98
	c0.046,0.713,0.897,0.967,1.544,0.967c1.279,0,1.786-0.921,1.786-2.259v-0.391h-0.022c-0.323,0.725-1.107,1.083-1.856,1.083
	c-1.775,0-2.661-1.396-2.661-3.021c0-1.404,0.692-3.145,2.753-3.145c0.75,0,1.416,0.334,1.774,0.991h0.012v-0.854h0.923V47.216z
	 M128.192,44.623c0-1.049-0.459-2.132-1.692-2.132c-1.256,0-1.762,1.025-1.762,2.166c0,1.072,0.393,2.271,1.681,2.271
	C127.71,46.928,128.192,45.74,128.192,44.623z"/>
<path fill="#878787" d="M135.718,45.834c-0.265,1.311-1.209,2.025-2.547,2.025c-1.901,0-2.8-1.312-2.857-3.131
	c0-1.788,1.174-3.102,2.8-3.102c2.107,0,2.753,1.969,2.698,3.411h-4.46c-0.035,1.037,0.552,1.958,1.854,1.958
	c0.808,0,1.372-0.392,1.545-1.162H135.718z M134.772,44.174c-0.045-0.935-0.748-1.683-1.716-1.683c-1.026,0-1.635,0.772-1.705,1.683
	H134.772z"/>
<path fill="#878787" d="M136.825,41.765h0.92v0.946h0.022c0.416-0.738,1.082-1.084,1.937-1.084c1.566,0,2.052,0.9,2.052,2.177v3.919
	h-0.981v-4.031c0-0.727-0.46-1.2-1.21-1.2c-1.187,0-1.763,0.794-1.763,1.867v3.364h-0.978V41.765z"/>
<path fill="#878787" d="M148.311,45.834c-0.263,1.311-1.209,2.025-2.543,2.025c-1.903,0-2.802-1.312-2.859-3.131
	c0-1.788,1.175-3.102,2.801-3.102c2.108,0,2.752,1.969,2.696,3.411h-4.459c-0.035,1.037,0.551,1.958,1.855,1.958
	c0.807,0,1.371-0.392,1.544-1.162H148.311z M147.366,44.174c-0.043-0.935-0.748-1.683-1.718-1.683c-1.021,0-1.634,0.772-1.703,1.683
	H147.366z"/>
<path fill="#878787" d="M149.381,41.765h0.923v1.255h0.024c0.473-0.956,1.129-1.427,2.189-1.393v1.037
	c-1.579,0-2.154,0.899-2.154,2.407v2.651h-0.982V41.765z"/>
<path fill="#878787" d="M156.619,39.495h1.095v3.538h4.333v-3.538h1.094v8.228h-1.094v-3.767h-4.333v3.767h-1.095V39.495z"/>
<path fill="#878787" d="M170.056,47.699c-0.174,0.104-0.393,0.16-0.703,0.16c-0.507,0-0.831-0.275-0.831-0.921
	c-0.541,0.634-1.268,0.921-2.096,0.921c-1.084,0-1.971-0.481-1.971-1.669c0-1.35,1.001-1.637,2.019-1.832
	c1.082-0.208,2.003-0.139,2.003-0.875c0-0.854-0.704-0.992-1.323-0.992c-0.832,0-1.442,0.254-1.489,1.129h-0.978
	c0.056-1.475,1.196-1.993,2.522-1.993c1.072,0,2.236,0.241,2.236,1.637v3.064c0,0.461,0,0.668,0.311,0.668
	c0.08,0,0.173-0.012,0.3-0.058V47.699z M168.466,44.646c-0.381,0.275-1.119,0.288-1.775,0.402c-0.645,0.115-1.199,0.345-1.199,1.073
	c0,0.645,0.555,0.874,1.153,0.874c1.29,0,1.821-0.806,1.821-1.348V44.646z"/>
<path fill="#878787" d="M170.965,41.765h0.923v0.946h0.022c0.414-0.738,1.081-1.084,1.934-1.084c1.569,0,2.052,0.9,2.052,2.177
	v3.919h-0.979v-4.031c0-0.727-0.461-1.2-1.21-1.2c-1.187,0-1.763,0.794-1.763,1.867v3.364h-0.979V41.765z"/>
<path fill="#878787" d="M182.693,47.723h-0.977v-0.808h-0.024c-0.323,0.657-1.083,0.944-1.901,0.944
	c-1.83,0-2.742-1.451-2.742-3.131c0-1.683,0.899-3.102,2.72-3.102c0.611,0,1.486,0.229,1.924,0.933h0.024v-3.064h0.977V47.723z
	 M179.93,46.996c1.313,0,1.819-1.128,1.819-2.246c0-1.176-0.529-2.259-1.877-2.259c-1.336,0-1.785,1.141-1.785,2.305
	C178.087,45.912,178.661,46.996,179.93,46.996z"/>
</svg>
